# xmcd
# Track frame offsets:
# 150
# 17073
# 39846
# 58569
# 76392
# 95790
# 111438
# 126486
# 147159
# 166107
# 180480
# 194853
#
# Disc length: 2784 seconds
# Revision: 0
# Processed by: cddbd v1.5.2PL0 Copyright (c) Steve Scherf et al.
# Submitted via: VisiTrax 2.11.3.279 - For more info visit www.synapsa.com
#
DISCID=a60ade0c
DTITLE=Simply Red - Songs Of Love
DYEAR=2010
DGENRE=
TTITLE0=Say You Love Me
TTITLE1=You Make Me Feel Brand New
TTITLE2=Stars
TTITLE3=You've Got It Baby
TTITLE4=For Your Babies
TTITLE5=If You Don't Know Me By Now
TTITLE6=It's You
TTITLE7=Beside You
TTITLE8=Holding Back The Years
TTITLE9=Smile
TTITLE10=I Have The Love
TTITLE11=Ev'ry Time We Say Goodbye
EXTD=
EXTT0=
EXTT1=
EXTT2=
EXTT3=
EXTT4=
EXTT5=
EXTT6=
EXTT7=
EXTT8=
EXTT9=
EXTT10=
EXTT11=
PLAYORDER=
